<svg xmlns="http://www.w3.org/2000/svg" xmlns:xlink="http://www.w3.org/1999/xlink" aria-hidden="true" role="img" class="iconify iconify--logos" width="35.93" height="32" preserveAspectRatio="xMidYMid meet" viewBox="0 0 256 228"><path fill="#00D8FF" d="M210.483 73.824a171.49 171.49 0 0 0-8.24-2.597c.465-1.23.924-2.463 1.376-3.703c5.314-14.443 8.01-28.956 8.01-43.241c0-7.393-.72-14.593-2.145-21.483c-12.01 3.796-41.127 15.389-67.304 36.523a171.23 171.23 0 0 0-6.375 4.832a155.866 155.866 0 0 0-4.241-3.255C100.748 7.347 68.123-1.728 53.776 1.08c-1.425 6.89-2.145 14.09-2.145 21.483c0 20.223 4.77 41.518 14.186 63.483c-2.63.915-5.22 1.887-7.765 2.914C20.316 72.658 7.5 57.472 2.174 50.48c-3.918 12.217-3.918 25.693 0 39.663c5.15 6.728 17.608 21.48 41.342 30.413a170.488 170.488 0 0 0-7.623 3.255c-9.416 21.965-14.186 43.26-14.186 63.483c0 7.393.72 14.593 2.145 21.483c14.347 2.808 46.972-6.267 77.743-33.067a155.52 155.52 0 0 0 4.241-3.255a171.23 171.23 0 0 0 6.375 4.832c26.177 21.134 55.294 32.727 67.304 36.523c1.425-6.89 2.145-14.09 2.145-21.483c0-20.223-4.77-41.518-14.186-63.483c2.545-1.027 5.135-1.999 7.765-2.914c23.734 8.933 36.192 23.685 41.342 30.413c3.918 12.217 3.918 25.693 0 39.663c-5.326-6.992-18.142-22.178-51.468-36.523a170.488 170.488 0 0 0 7.623-3.255c9.416-21.965 14.186-43.26 14.186-63.483c0-7.393-.72-14.593-2.145-21.483c-12.01-3.796-41.127-15.389-67.304-36.523a171.49 171.49 0 0 0 8.24-2.597c33.326-14.345 46.142-29.531 51.468-36.523c-5.326-6.992-18.142-22.178-51.468-36.523Zm-9.61 91.432c-1.88 5.108-3.94 10.098-6.17 14.96c-12.01-3.796-41.127-15.389-67.304-36.523a171.23 171.23 0 0 1-6.375-4.832c-1.72 1.32-3.48 2.6-5.276 3.84c-1.796-1.24-3.556-2.52-5.276-3.84a171.23 171.23 0 0 1-6.375 4.832c-26.177 21.134-55.294 32.727-67.304 36.523c-2.23-4.862-4.29-9.852-6.17-14.96c-8.24-22.4-12.38-43.04-12.38-61.256c0-18.216 4.14-38.856 12.38-61.256c1.88-5.108 3.94-10.098 6.17-14.96c12.01 3.796 41.127 15.389 67.304 36.523a171.23 171.23 0 0 1 6.375 4.832c1.72-1.32 3.48-2.6 5.276-3.84c1.796 1.24 3.556 2.52 5.276 3.84a171.23 171.23 0 0 1 6.375-4.832c26.177-21.134 55.294-32.727 67.304-36.523c2.23 4.862 4.29 9.852 6.17 14.96c8.24 22.4 12.38 43.04 12.38 61.256c0 18.216-4.14 38.856-12.38 61.256Z"></path></svg>

